# xmcd
# Copyright (C) 1995-1998 Ti Kan
#
# Track frame offsets:
#       150
#       24250
#       43191
#       59759
#       85117
#       104770
#       125204
#       150919
#       171850
#       187500
#       206789
#       229757
#
# Disc length: 3329 seconds
#
# Revision: 0
# Processed by: cddbd v1.5.2PL0 Copyright (c) Steve Scherf et al.
# Submitted via: CD-Transfer v1.0
#
DISCID=9e0cff0c
DTITLE=Opæa Opasnost - Mario Vestiæ
DYEAR=11
DGENRE=
TTITLE0=Uzalud Sunce Sja
TTITLE1=Lovac Na Novac
TTITLE2=Kao Grom
TTITLE3=Pobjeg'o Sam
TTITLE4=Vrat Se Na Svjetlo
TTITLE5=Armagedon
TTITLE6=Tvoje Ime Èuvam
TTITLE7=Virtualni Novi Svijet
TTITLE8=Tone Rock 'n' Rolla
TTITLE9=Tri Rijeke
TTITLE10=Da Sam Znao
TTITLE11=Nisam Roðen Pod Sretnom Zvijezdom
EXTD=
EXTT0=
EXTT1=
EXTT2=
EXTT3=
EXTT4=
EXTT5=
EXTT6=
EXTT7=
EXTT8=
EXTT9=
EXTT10=
EXTT11=
PLAYORDER=
